<?xml version='1.0' encoding='utf-8'?>
<svg xmlns="http://www.w3.org/2000/svg" width="208.097mm" height="113.345mm" version="1.1" style="shape-rendering:geometricPrecision; text-rendering:geometricPrecision; image-rendering:optimizeQuality; fill-rule:evenodd; clip-rule:evenodd" viewBox="0 0 243455 132604"> <defs> <style type="text/css">  .str5 {stroke:white;stroke-width:495.224} .str3 {stroke:white;stroke-width:495.224;stroke-linecap:round} .str4 {stroke:white;stroke-width:233.982;stroke-linecap:round;stroke-linejoin:round} .str1 {stroke:white;stroke-width:792.381;stroke-linecap:square} .str2 {stroke:white;stroke-width:495.224;stroke-linecap:square} .str0 {stroke:white;stroke-width:233.982;stroke-linecap:square} .fil0 {fill:none}  </style> </defs> <g id="Vrstva_x0020_1"> <metadata id="CorelCorpID_0Corel-Layer"/> <path class="fil0 str0" d="M13360 109327l0 7528c-36,1866 1074,2872 2674,2872l38362 8c1124,-38 2497,-301 2646,-2187 26,-6746 1034,-10458 -693,-10400l-42593 0c-631,-26 -396,1633 -396,2179z"/> <path class="fil0 str1" d="M209602 111331c-3969,86 -10715,8398 -3269,14957 7595,6691 19194,-5824 10301,-12976 -2978,-2395 -4264,-1981 -7032,-1981z"/> <path class="fil0 str2" d="M82697 111902c-938,21 -1448,437 -2278,594l-1387 991 -1981 2179 -1090 3071 0 1188c-129,428 -129,167 0,595 24,163 -8,950 99,1287 243,406 358,593 397,1090 222,385 164,156 198,594 254,347 158,193 297,595 366,396 408,527 594,990 322,488 1749,1709 2179,1981 1119,449 1811,713 2972,1090l1486 99c2029,-321 1319,-239 3367,-988 597,-218 1068,-647 1684,-894l1486 -1486c138,-344 320,-662 495,-991 226,-485 493,-947 595,-1485 280,-394 198,-160 198,-694 108,-334 180,-652 297,-990l99 -1288c-153,-471 -132,-632 -396,-1090l0 -396c-150,-889 -1438,-3477 -2278,-4160 -784,-636 -2269,-1625 -3269,-1783l-3764 -99z"/> <path class="fil0 str0" d="M86362 118440c-355,362 -313,262 -496,693 400,945 759,675 1189,594l288 -500c-156,-385 -94,-768 -981,-787z"/> <path class="fil0 str0" d="M83786 116954c-578,1244 594,1444 991,990 26,-60 168,-332 198,-396 -208,-579 118,-179 -495,-792 -561,12 -246,-17 -694,198z"/> <path class="fil0 str0" d="M213068 118364c0,308 -19,990 694,990 529,0 885,-591 495,-1089 -402,-515 -803,-257 -1189,99z"/> <path class="fil0 str0" d="M210691 116680c0,801 189,990 991,990 933,-1036 -275,-1386 -298,-1386 -470,162 -290,32 -693,396z"/> <path class="fil0 str0" d="M209503 120840c-184,318 -182,358 -298,693l595 595c465,-88 426,-66 792,-397l0 -594 -396 -396c-303,0 -617,99 -693,99z"/> <path class="fil0 str0" d="M81310 118836c-106,946 519,1257 1288,693l0 -594c-363,-355 -262,-313 -694,-495 -399,168 -248,77 -594,396z"/> <path class="fil0 str0" d="M85272 121411c-293,497 -332,614 198,1189l496 0c515,-572 515,-815 0,-1387 -561,12 -246,-16 -694,198z"/> <path class="fil0 str0" d="M212474 120840c-214,233 -234,255 -396,495 612,1449 2085,620 990,-594 -286,6 -518,99 -594,99z"/> <path class="fil0 str0" d="M82598 121213c-1227,1329 884,1883 891,693 3,-461 -379,-682 -891,-693z"/> <path class="fil0 str0" d="M208413 118364c-159,2023 2488,404 594,-397 -399,169 -248,78 -594,397z"/> <path class="fil0 str0" d="M115384 63763c195,-38 300,-62 495,-99"/> <line class="fil0 str0" x1="118356" y1="63664" x2="116573" y2="63664"/> <path class="fil0 str0" d="M102309 63862c305,-101 169,-74 495,-99"/> <line class="fil0 str0" x1="103795" y1="63763" x2="103696" y2="63763"/> <line class="fil0 str0" x1="109045" y1="63763" x2="108946" y2="63763"/> <line class="fil0 str0" x1="110431" y1="63763" x2="110333" y2="63763"/> <path class="fil0 str0" d="M122417 63862c-411,-134 -442,-99 -892,-99"/> <path class="fil0 str0" d="M133313 65545c961,-567 603,-451 1287,-1584m0 -99c-607,-481 -310,-97 -693,-991m891 7726c758,-1031 298,-4591 298,-6240 -252,-252 -222,-229 -496,-396l0 -99c535,-158 484,-411 298,-892 -788,-306 -388,184 -1585,-297 -920,483 -892,1196 -892,2179 333,325 519,474 892,693l0 4656"/> <line class="fil0 str0" x1="103795" y1="64654" x2="102309" y2="64654"/> <line class="fil0 str0" x1="109045" y1="64654" x2="105083" y2="64654"/> <line class="fil0 str0" x1="114096" y1="64654" x2="110233" y2="64654"/> <line class="fil0 str0" x1="119247" y1="64654" x2="115384" y2="64654"/> <line class="fil0 str0" x1="122516" y1="64654" x2="120436" y2="64654"/> <line class="fil0 str0" x1="103795" y1="65447" x2="102210" y2="65447"/> <line class="fil0 str0" x1="109045" y1="65447" x2="105083" y2="65447"/> <line class="fil0 str0" x1="114096" y1="65447" x2="110233" y2="65447"/> <line class="fil0 str0" x1="119247" y1="65447" x2="115384" y2="65447"/> <path class="fil0 str0" d="M122516 65545c-576,-186 -1337,-98 -1981,-98"/> <line class="fil0 str0" x1="103894" y1="66338" x2="102309" y2="66338"/> <line class="fil0 str0" x1="109045" y1="66338" x2="105083" y2="66338"/> <line class="fil0 str0" x1="114096" y1="66338" x2="110134" y2="66338"/> <line class="fil0 str0" x1="119247" y1="66338" x2="115285" y2="66338"/> <line class="fil0 str0" x1="122417" y1="66338" x2="120436" y2="66338"/> <line class="fil0 str0" x1="103894" y1="67130" x2="102309" y2="67130"/> <line class="fil0 str0" x1="109045" y1="67130" x2="105083" y2="67130"/> <line class="fil0 str0" x1="114196" y1="67130" x2="110134" y2="67130"/> <line class="fil0 str0" x1="119247" y1="67130" x2="115285" y2="67130"/> <path class="fil0 str0" d="M120436 68022l1981 0c155,-399 155,-493 0,-892l-1981 0"/> <line class="fil0 str0" x1="103894" y1="68022" x2="102309" y2="68022"/> <line class="fil0 str0" x1="109045" y1="68022" x2="104984" y2="68022"/> <line class="fil0 str0" x1="114096" y1="68022" x2="110035" y2="68022"/> <line class="fil0 str0" x1="119346" y1="68022" x2="115285" y2="68022"/> <line class="fil0 str0" x1="103894" y1="68913" x2="102309" y2="68913"/> <line class="fil0 str0" x1="108946" y1="68913" x2="105083" y2="68913"/> <line class="fil0 str0" x1="114096" y1="68913" x2="110134" y2="68913"/> <line class="fil0 str0" x1="119247" y1="68913" x2="115285" y2="68913"/> <line class="fil0 str0" x1="122516" y1="68913" x2="120535" y2="68913"/> <path class="fil0 str0" d="M115384 69805c891,0 3179,166 3863,-99"/> <path class="fil0 str0" d="M120436 69805c707,0 1605,-37 2179,0 -34,440 -44,447 -297,792l-495 0c-428,130 -167,130 -595,0 -989,0 -3711,-191 -4457,99 -748,-290 -2294,-99 -3170,-99 -350,114 -205,91 -594,99 -835,-271 -8914,-99 -10500,-99 -153,-330 -168,-308 -198,-693 501,-195 1211,-99 1783,-99"/> <line class="fil0 str0" x1="108946" y1="69805" x2="105083" y2="69805"/> <line class="fil0 str0" x1="114295" y1="69805" x2="110035" y2="69805"/> <path class="fil0 str0" d="M102904 93379c398,-154 541,-99 990,-99"/> <path class="fil0 str0" d="M109045 93280l-1486 0c-243,-87 -170,-55 -396,-99 -603,196 -1408,99 -2080,99"/> <line class="fil0 str0" x1="113997" y1="93280" x2="110035" y2="93280"/> <path class="fil0 str0" d="M115285 93379c695,-269 3055,-99 3962,-99"/> <line class="fil0 str0" x1="121228" y1="93280" x2="120535" y2="93280"/> <line class="fil0 str0" x1="122417" y1="93478" x2="121922" y2="93280"/> <path class="fil0 str0" d="M102606 94271c-367,-100 -181,31 -396,-297"/> <path class="fil0 str0" d="M108054 94271c-427,166 -662,138 -1089,0 -399,154 -542,99 -991,99 -411,-133 -441,-99 -891,-99"/> <path class="fil0 str0" d="M113205 94271l-1684 0c-243,87 -170,55 -396,99 -411,-133 -442,-99 -892,-99"/> <line class="fil0 str0" x1="114196" y1="94271" x2="114096" y2="94271"/> <path class="fil0 str0" d="M117167 94271c-389,8 -244,-15 -594,99l-793 0c-290,-97 -182,-75 -495,-99"/> <path class="fil0 str0" d="M119346 94271c-467,0 -563,-40 -990,99 -364,-141 -275,-99 -694,-99"/> <path class="fil0 str0" d="M122516 94271c-326,25 -191,-2 -495,99l-793 0c-367,-119 -283,-99 -693,-99"/> <line class="fil0 str0" x1="103894" y1="94370" x2="103597" y2="94370"/> <path class="fil0 str0" d="M103795 95063c-519,0 -1133,76 -1585,-99"/> <line class="fil0 str0" x1="109045" y1="95063" x2="104984" y2="95063"/> <line class="fil0 str0" x1="114096" y1="95063" x2="110233" y2="95063"/> <line class="fil0 str0" x1="119247" y1="95063" x2="115285" y2="95063"/> <line class="fil0 str0" x1="122516" y1="95063" x2="120436" y2="95063"/> <line class="fil0 str0" x1="103795" y1="95955" x2="102309" y2="95955"/> <line class="fil0 str0" x1="108054" y1="95955" x2="105083" y2="95955"/> <line class="fil0 str0" x1="114096" y1="95955" x2="110233" y2="95955"/> <line class="fil0 str0" x1="119247" y1="95955" x2="115384" y2="95955"/> <line class="fil0 str0" x1="122516" y1="95955" x2="120436" y2="95955"/> <path class="fil0 str0" d="M102309 96846c551,-178 1116,-69 1585,-99"/> <path class="fil0 str0" d="M109045 96747l-1189 0c-562,183 -2221,214 -2773,0"/> <path class="fil0 str0" d="M114295 96747l-2477 99c-466,-151 -920,-151 -1387,0 -286,-123 -35,-71 -396,-99"/> <path class="fil0 str0" d="M115384 96846c405,-157 631,-99 1090,-99 572,186 2311,218 2872,0"/> <path class="fil0 str0" d="M122516 96846c-629,-204 -1478,-99 -2179,-99"/> <line class="fil0 str0" x1="103894" y1="97738" x2="102309" y2="97738"/> <line class="fil0 str0" x1="109045" y1="97738" x2="105083" y2="97738"/> <line class="fil0 str0" x1="114196" y1="97738" x2="110134" y2="97738"/> <line class="fil0 str0" x1="119247" y1="97738" x2="115285" y2="97738"/> <line class="fil0 str0" x1="122417" y1="97738" x2="120436" y2="97738"/> <path class="fil0 str0" d="M103894 98530c-350,70 -264,9 -693,0 -244,88 -170,55 -397,99 -212,-45 -170,-24 -396,-99"/> <path class="fil0 str0" d="M114196 98530c-730,283 -2218,99 -3071,99 -572,-185 -542,-10 -991,-99"/> <path class="fil0 str0" d="M115384 98629c891,0 3179,167 3863,-99"/> <path class="fil0 str0" d="M108946 98629l-1783 0c-428,-129 -167,-129 -595,0l-1386 0"/> <line class="fil0 str0" x1="114096" y1="99421" x2="110134" y2="99421"/> <line class="fil0 str0" x1="119247" y1="99421" x2="115285" y2="99421"/> <path class="fil0 str0" d="M104984 100313c1072,0 4708,-188 5447,99 728,-282 10171,-99 11788,-99 187,-120 216,-152 396,-297 0,-410 20,-327 -99,-694m-2080 99l1684 0c243,-87 169,-55 396,-99 0,-429 48,-413 -99,-792l-495 0c-471,153 -862,99 -1387,99m-16740 1684l1189 0c0,-439 -53,-501 99,-892l3863 0m-6538 793c-109,-266 -143,-402 -198,-693 427,-166 994,-100 1486,-100 151,391 99,453 99,892l-991 0c-243,-88 -169,-55 -396,-99 -251,251 -230,220 -396,495 729,976 2284,453 2575,495 736,239 1762,99 2576,99 784,-136 10,-126 792,0l3170 0c486,-157 1033,-99 1585,-99 804,261 8124,99 9608,99 473,-114 1135,-495 1284,-992l4 -2474c133,-412 99,-442 99,-892 -168,-518 -200,-1466 0,-1981 -148,-402 -144,-150 0,-594 -13,-573 -209,-870 -595,-1288"/> <path class="fil0 str3" d="M212456 105761l0 -793c336,-1391 96,-1088 193,-2353m24372 -3293c-846,1246 -18243,-457 -24372,3293 9,-1022 28,-984 18,-1716m27721 -1775c420,-727 98,-1196 -99,-1882m-99 -792c0,-1312 -56,-3333 -891,-4259m0 -1090c0,-4917 -24322,-14479 -26942,-14759m-62106 49031l0 -792m-20108 990c68,-360 169,-615 198,-990m0 -3368l0 3368 19910 0 0 -3467m-53885 -1783c-622,4874 68,4541 -2575,8420 -2276,3338 -6000,4543 -10005,4358 -2606,-120 -5250,-790 -7230,-2477 -4141,-3525 -3846,-5427 -4359,-10301m-61709 -693c644,469 1806,2425 4655,2377l40909 0c828,0 3044,-2209 3268,-2575m43683 693c1470,-1471 948,-887 1089,-1783 287,-884 99,-10142 99,-11886 2577,-80 12934,-88 20405,0 228,2845 498,11279 -198,12976m29320 -397c8819,0 34574,187 38036,-99m-60620 496c-230,374 -467,562 -794,889l1 1884c184,-90 217,-91 495,-99l19415 0 0 -2179c97,-283 186,-516 297,-793l0 -396m3111 -2c-10,189 -16,164 59,299 0,438 21,960 792,1090l37343 0c662,-107 2723,-1612 3070,-2179m3566 -2179c-94,3934 -845,2386 261,7493 1196,5523 6399,10093 12955,10089 5576,-5 14146,-5124 12241,-18078m12877 -17235c-1314,-1426 -614,-5943 2476,-5943 154,398 154,691 0,1090 -3397,261 -2469,4186 891,4259 291,408 259,301 99,792 -1554,0 -2194,-736 -3466,-198 0,783 -95,1547 198,2278 4139,0 3397,-579 5745,3269 808,1773 527,2555 -991,3566m-79143 9806c-35,722 -148,842 233,864 2907,661 27101,21 32058,127 613,-169 2632,-1833 3566,-2179l462 -302c3231,-7261 6643,-7386 13505,-8712 4775,651 8809,3504 11490,8518 2109,1129 4136,2282 5349,4557 928,2387 10298,-294 12480,-2675 2223,-2730 964,-6312 396,-9311 -206,-281 -243,-394 -396,-693 -1111,0 -2274,-99 -3368,-99m-112325 -1486c-14197,0 -28391,0 -42593,0 -8353,0 -16707,0 -25060,0m104203 -693l0 12084c826,477 25618,198 28824,198 846,-142 703,-655 793,-1188 1473,-11783 9510,-13600 20418,-14074 5,-17 -238,-23400 -310,-24557 256,-5455 -23031,-28994 -24665,-29616 -10345,-3946 -16783,-2378 -25258,-2378 0,9793 198,19586 198,29419 0,10048 0,20079 0,30112 -1236,0 -6865,274 -7528,-198l0 -397c-363,-1120 -22,-57114 0,-57252 470,-2970 1284,-4329 3071,-4259 10900,-121 58606,442 62675,-1636 11682,-5965 -2546,-29898 -9880,-33924 -14052,-7714 -26155,-4358 -42395,-4358 -19563,0 -39863,-788 -57549,7032 -10192,4507 -21745,3566 -32985,3566 -21076,0 -42147,-99 -63195,-99 -5367,192 -10995,1097 -10995,8024 -166,19307 -99,38636 -99,57945l-991 0 0 -57945c451,-6753 4602,-8317 10302,-8717 11502,-655 82124,1145 89600,-995l8066 -2472c8811,-3499 9550,-3812 26622,-6374 4958,-745 11270,-758 17060,-758 7201,-57 16758,391 24254,-262 22291,-1941 38619,111 46766,24035 6998,20550 -9851,17692 -25132,18040 -14162,322 -30204,91 -44284,91m-155433 61606c121,9281 2858,12704 9906,14066 0,-4663 -100,-9311 -100,-13967 1090,-423 42978,-99 48041,-99 0,3948 -783,11131 891,13868 1847,-103 12290,590 12877,891 3638,-13631 22108,-10907 24169,0 2901,-286 3616,-198 6637,-198 473,337 17792,-718 21395,-693 1927,55 3565,68 6736,0 2846,0 16522,712 17928,-694l1486 0c1128,0 1895,-2 3111,-2 -98,-2149 -927,-14147 1445,-14063m-150362 -10995l-594 0m-3467 1089c-274,846 -99,9178 -99,10797l9806 0c0,-6621 584,-17675 -495,-23376m-9311 10400c1466,0 2906,-232 3566,1090 -449,1094 -1818,771 -3467,1089 -502,-418 -611,-1738 -99,-2179 0,-3905 -1338,-8256 2378,-10400m125004 -297l0 -2576m-125203 0c0,813 -255,2236 199,2873l6933 0c241,-137 165,-66 396,-297l117675 0 0 30607c131,780 740,1951 1387,2476 598,487 1139,660 1981,793l16541 0c1119,-177 1427,-288 2279,-991 551,-455 982,-1206 1089,-1882 286,-1811 99,-17212 99,-20504l0 -60323c-365,-2310 -434,-3423 -2971,-3467l-15948 0c-3795,93 -4348,988 -4457,2972l0 47743 -124212 0m184201 -27913l-278 368c115,3065 1035,16493 2739,24354 339,1564 739,1681 1693,1698 4552,77 6693,126 11228,4 1071,-28 2129,-616 2438,-1197 2949,-5528 -4655,-10981 -9265,-16332 -826,-1013 -1855,-2000 -2575,-2872 -192,-284 -403,-509 -595,-793l-4754 -5051c-247,-80 -384,-99 -631,-179"/> <line class="fil0 str0" x1="114592" y1="106454" x2="114493" y2="106355"/> <path class="fil0 str0" d="M25841 14930l-396 0c-368,-119 -284,-99 -694,-99 -367,-119 -283,-99 -693,-99"/> <path class="fil0 str4" d="M22770 108930l-495 0m-1189 0c475,339 690,263 1189,0 -55,-291 -89,-427 -198,-693m-1783 594c379,148 363,99 792,99 56,-294 63,-441 169,-714"/> <path class="fil0 str0" d="M157085 14831l1387 0c427,-139 523,-99 990,-99"/> <line class="fil0 str0" x1="155005" y1="14831" x2="27822" y2="14831"/> <path class="fil0 str0" d="M157184 21665c1942,0 3818,316 5349,-396m-136791 -2080c124,-268 140,-289 198,-594m136890 2773c-205,-128 35,-99 -297,-99 -79,-1034 -673,-2035 -693,-2971m-134414 1485c-791,-1388 -697,-4207 -199,-5745m126292 7429c464,540 2849,198 3665,198 0,-3477 -366,-3665 1387,-3665 180,-387 315,-735 594,-1089 3130,0 673,162 2675,1387 568,-1977 71,-3748 -1090,-4458m-5051 198c420,-299 4671,-74 5051,-198 0,-332 29,-92 -99,-297m-5943 198c-399,285 -21646,99 -24367,99 -14370,0 -28718,99 -43088,99 -9056,135 -55014,-710 -60026,99 -2469,-1425 -7916,497 -4556,3269 1544,1043 1105,1882 3071,1882 278,97 584,582 1684,594 599,7 787,1303 1387,1310 41067,464 83145,218 124706,374 3104,-3103 3012,-3024 2180,-7429 -1017,-80 410,-32 -991,-297l0 -396"/> <path class="fil0 str0" d="M101913 70894c307,307 340,423 792,496l991 0c428,-130 167,-130 594,0l18622 0c372,-372 798,-811 793,-1387 -45,-213 -25,-170 -99,-396l0 -5646 -397 -595"/> <path class="fil0 str0" d="M108054 63763c-210,-44 -163,-16 -396,-99l-1189 0"/> <path class="fil0 str0" d="M114096 63763c-389,-9 -244,14 -594,-99l-2476 0"/> <path class="fil0 str0" d="M84282 126661l-496 -495m5151 -1387c-35,455 -137,494 -297,891 -115,135 -2540,1486 -3566,1486 -395,-395 -280,-445 -792,-495 -211,311 -310,409 -595,693 -546,0 -2203,-422 -2575,-594 -487,-395 -839,-477 -1288,-892 -142,-440 -99,-606 -99,-1089l694 0m-892 -495c92,213 99,27 99,396 -413,0 -669,58 -1094,-288 -482,-391 -1301,-2401 -1382,-2882 -114,-676 184,-976 495,-1288m594 496c-271,-272 -286,-307 -594,-496 -51,-523 -197,-494 -594,-891l0 -594c164,-475 301,-983 396,-1486 361,-457 517,-912 891,-1387 436,-261 681,-399 1189,-495l0 792m9113 8618l297 0c475,-338 673,-198 1189,-495 201,-198 1553,-3021 1386,-3566 -210,-312 -309,-409 -594,-694 322,-407 94,-12 198,-396 319,-345 228,-195 396,-594 -136,-725 -903,-2627 -1287,-3269 -256,-202 -331,-239 -595,-396 -533,0 -299,82 -693,-198m-8816 99l-495 0c0,-512 -27,-885 595,-1387 461,-373 1884,-989 2476,-1089 389,-9 244,14 594,-100 707,394 455,366 991,694 550,-337 596,-694 1188,-694 786,149 2289,780 2972,1189l396 396c0,723 53,292 99,892l-693 0"/> <path class="fil0 str0" d="M211682 126189l396 -396m-793 396c-176,613 -683,690 -1287,594 -350,-113 -205,-91 -595,-99 -377,-106 -1999,-942 -2278,-1288 -179,-446 -285,-563 -297,-1089l693 0m-891 -496c92,214 99,27 99,397 -515,0 -673,-57 -1089,-297 -493,-466 -1576,-3058 -1288,-3764 255,-261 307,-316 495,-595l-594 -594c0,-1546 124,-807 288,-1392l9 -391c342,-593 611,-1248 990,-1882 427,-171 611,-306 1090,-396l0 594m4259 10202c251,252 230,220 396,496l397 0 495 495c562,-43 3085,-1173 3467,-1783 175,-507 91,-454 495,-891 302,-194 633,65 1194,-387 647,-522 1183,-2512 1183,-3377l-495 -496c42,-541 108,-495 495,-891 221,-435 -655,-3592 -1981,-3962 -532,-12 -213,73 -594,-198m-8618 99l-594 0c30,-1379 462,-1240 693,-1387 424,-381 948,-592 1486,-693 1104,-480 1390,-889 2476,198 344,-233 482,-383 793,-694 1008,0 3263,1107 3566,1486 204,256 198,680 198,991l-495 0"/> <rect class="fil0 str5" x="13036" y="37674" width="60670" height="25558" rx="1881" ry="2774"/> <rect class="fil0 str5" x="93671" y="38344" width="23731" height="19862" rx="2377" ry="2377"/> <rect class="fil0 str5" transform="matrix(1.4595 -0 0.624831 1.4595 171039 14972.4)" width="22132" height="7532" rx="1783" ry="1783"/> <rect class="fil0 str5" transform="matrix(1.08274 -0 0.101148 1 165359 47808.4)" width="18676" height="29045" rx="2179" ry="2179"/> <path class="fil0 str4" d="M51155 108930l-495 0m-1189 0c475,339 689,263 1189,0 -56,-291 -90,-427 -199,-693m-1782 594c379,148 363,99 792,99 56,-294 63,-441 169,-714"/> </g> </svg>